<?xml version="1.0"?>
<svg width="512" height="512" xmlns="http://www.w3.org/2000/svg" xmlns:svg="http://www.w3.org/2000/svg" preserveAspectRatio="xMidYMid meet" version="1.0">
 <g class="layer">
  <title>Layer 1</title>
  <g fill="#000000" id="svg_1" transform="matrix(0.1 0 0 -0.1 0 0)">
   <path d="m2395,-346c-383,-44 -657,-138 -923,-316c-158,-107 -362,-301 -408,-389c-20,-40 -14,-111 12,-141c25,-28 263,-237 291,-255c45,-30 102,10 89,61c-3,12 -69,77 -146,144c-77,67 -140,127 -140,132c0,17 124,153 204,222c419,363 994,504 1584,387c139,-27 264,-70 402,-135c160,-77 252,-137 394,-258c63,-54 196,-200 196,-216c0,-5 -55,-57 -122,-116c-146,-126 -168,-149 -168,-175c0,-25 34,-59 60,-59c20,0 147,102 270,218c65,60 72,71 77,113c7,59 -8,88 -97,188c-286,324 -732,543 -1209,591c-96,9 -297,11 -366,4z" fill="#be9661" id="svg_2"/>
   <path d="m952,-1301c-48,-10 -71,-35 -110,-118c-113,-243 -182,-581 -182,-890c0,-550 169,-1118 468,-1571c104,-159 222,-304 262,-325c41,-21 89,-19 165,9c66,24 66,24 51,2c-53,-73 -62,-131 -30,-187c11,-17 62,-63 114,-100c180,-129 409,-231 620,-276c118,-25 382,-25 500,0c210,45 442,147 620,275c152,109 170,170 84,290l-16,22l66,-25c76,-29 124,-32 166,-10c39,20 157,165 256,315c200,304 342,648 414,1010c40,197 50,285 57,490c7,200 -6,355 -42,537c-43,209 -142,482 -193,527c-42,37 -161,38 -189,0c-34,-46 5,-98 69,-92c38,3 41,2 60,-36c31,-61 85,-217 112,-324c39,-153 56,-274 63,-447c21,-550 -147,-1145 -452,-1600c-92,-138 -202,-275 -220,-275c-8,0 -87,27 -175,60c-88,33 -167,60 -175,60c-21,0 -55,-37 -55,-59c0,-11 41,-73 90,-139c50,-65 90,-125 90,-134c0,-27 -215,-170 -341,-226c-451,-202 -915,-148 -1341,156c-43,30 -78,62 -78,70c0,9 41,69 90,134c50,66 90,128 90,139c0,22 -34,59 -55,59c-8,0 -87,-27 -175,-60c-88,-33 -167,-60 -175,-60c-7,0 -47,42 -88,93c-494,613 -704,1511 -521,2229c27,107 81,263 112,324c19,38 22,39 60,36c64,-6 103,46 69,92c-16,22 -87,35 -135,25z" fill="#be9661" id="svg_3"/>
   <path d="m1638,-1595c-185,-35 -325,-124 -390,-247c-18,-33 -23,-60 -23,-118c0,-65 4,-82 30,-128c57,-104 186,-190 340,-229c96,-23 314,-23 410,0c154,39 283,125 340,229c26,45 30,64 30,128c0,64 -4,83 -30,128c-56,103 -187,191 -335,227c-94,23 -278,28 -372,10zm309,-121c184,-38 313,-139 313,-244c0,-105 -129,-206 -313,-244c-240,-50 -515,32 -588,175c-100,197 250,383 588,313z" fill="#be9661" id="svg_4"/>
   <path d="m3158,-1595c-185,-35 -325,-124 -390,-247c-18,-33 -23,-60 -23,-118c0,-65 4,-82 30,-128c57,-104 186,-190 340,-229c96,-23 314,-23 410,0c154,39 283,125 340,229c26,45 30,64 30,128c0,64 -4,83 -30,128c-56,103 -187,191 -335,227c-94,23 -278,28 -372,10zm309,-121c184,-38 313,-139 313,-244c0,-105 -129,-206 -313,-244c-240,-50 -515,32 -588,175c-100,197 250,383 588,313z" fill="#be9661" id="svg_5"/>
   <path d="m2119,-2521c-19,-19 -20,-29 -17,-223l3,-203l30,-48c22,-36 45,-57 84,-77l53,-28l287,0c315,0 332,3 395,66c59,59 66,90 66,302c0,179 -1,193 -20,212c-25,25 -54,26 -78,2c-9,-9 -43,-63 -75,-119c-84,-148 -74,-143 -287,-143c-213,0 -203,-5 -287,143c-32,56 -66,110 -75,119c-24,24 -53,23 -79,-3zm228,-368c50,-14 377,-14 428,0c24,7 57,29 82,54l43,42l0,-53c0,-65 -15,-101 -51,-120c-37,-19 -534,-21 -574,-2c-37,16 -55,57 -55,121l0,54l45,-43c24,-24 61,-48 82,-53z" fill="#be9661" id="svg_6"/>
   <path d="m2345,-3272c-108,-12 -251,-51 -326,-89c-243,-122 -264,-364 -50,-579c189,-191 464,-274 746,-225c298,52 558,272 581,492c23,216 -174,364 -538,403c-113,12 -299,11 -413,-2zm520,-136c126,-28 196,-56 248,-103c53,-46 72,-93 63,-155c-27,-199 -331,-394 -616,-394c-284,0 -589,195 -616,394c-20,142 119,235 412,275c111,16 404,5 509,-17z" fill="#be9661" id="svg_7"/>
  </g>
 </g>
</svg>