<?xml version="1.0"?>
<svg width="512" height="512" xmlns="http://www.w3.org/2000/svg" xmlns:svg="http://www.w3.org/2000/svg" preserveAspectRatio="xMidYMid meet" version="1.0">
 <g class="layer">
  <title>Layer 1</title>
  <g fill="#000000" id="svg_1" transform="matrix(0.1 0 0 -0.1 0 0)">
   <path d="m4110,-495c-60,-19 -121,-72 -166,-145c-20,-32 -41,-57 -47,-55c-37,12 -487,105 -562,117c-54,7 -174,12 -300,12c-186,-1 -239,-5 -460,-37c-597,-86 -924,-107 -1769,-114l-679,-5l-24,-24c-22,-22 -23,-29 -23,-174c0,-147 1,-152 25,-175c13,-14 31,-25 40,-25c13,0 15,-20 15,-136c0,-78 5,-154 12,-178c16,-55 99,-138 154,-154c51,-15 578,-16 869,-2c492,24 947,79 1404,170l195,38l27,-29c33,-35 55,-36 145,-5c101,34 149,61 180,101c43,57 53,100 54,234l0,123l93,-7c190,-13 394,-41 411,-56c9,-8 -178,-289 -317,-474c-343,-457 -785,-939 -1246,-1359c-164,-149 -363,-316 -766,-643c-231,-187 -436,-357 -457,-378c-128,-133 -155,-364 -61,-537c31,-58 123,-147 181,-177c57,-29 146,-51 207,-51c65,0 159,24 210,55c54,31 450,315 605,433c746,569 1386,1294 1864,2112c117,200 313,592 435,870l90,205l90,6c102,8 200,36 281,82c55,31 200,165 200,185c0,6 -27,30 -60,52l-61,41l-57,-58c-88,-89 -209,-143 -318,-143l-41,0l-6,59c-12,142 -122,249 -262,257c-35,2 -79,-2 -105,-11zm173,-183c38,-38 46,-102 23,-189c-31,-124 -312,-725 -463,-993c-425,-751 -994,-1436 -1648,-1980c-253,-211 -779,-592 -859,-623c-98,-37 -236,-3 -302,76c-55,65 -69,106 -69,202c0,154 -14,138 512,565c639,519 826,684 1178,1041c584,593 1005,1132 1360,1742c62,107 108,173 124,183c41,23 107,12 144,-24zm-925,-67c107,-18 454,-94 461,-101c3,-2 0,-9 -5,-14c-7,-7 -60,-2 -155,14c-157,26 -367,46 -491,46c-70,0 -82,-3 -103,-25c-25,-24 -25,-27 -25,-193c0,-153 -2,-172 -20,-194c-11,-14 -29,-28 -40,-31c-20,-5 -20,-1 -20,188c0,178 -2,194 -20,218c-11,14 -29,29 -40,32c-10,3 -101,-8 -202,-24c-598,-99 -1065,-131 -1920,-131l-538,0l0,40l0,40l468,0c791,0 1245,29 1912,120c118,16 233,32 255,34c81,8 393,-4 483,-19zm-558,-354l0,-119l-237,-46c-641,-124 -1187,-176 -1881,-176l-313,0l-24,25c-24,23 -25,29 -25,158l0,135l638,5c643,5 769,11 1142,48c190,19 612,74 635,83c6,3 22,5 38,5l27,1l0,-119z" fill="#be9661" id="svg_2"/>
   <path d="m4080,-880l0,-80l80,0l80,0l0,80l0,80l-80,0l-80,0l0,-80z" fill="#be9661" id="svg_3"/>
   <path d="m1200,-3933c-49,-16 -133,-102 -148,-153c-28,-94 -8,-169 63,-239c101,-102 229,-102 330,0c98,97 101,222 8,325c-65,72 -158,97 -253,67zm135,-172c50,-49 15,-135 -55,-135c-19,0 -40,9 -55,25c-16,15 -25,36 -25,55c0,19 9,40 25,55c15,16 36,25 55,25c19,0 40,-9 55,-25z" fill="#be9661" id="svg_4"/>
  </g>
 </g>
</svg>