<?xml version="1.0"?>
<svg width="512" height="512" xmlns="http://www.w3.org/2000/svg" xmlns:svg="http://www.w3.org/2000/svg" preserveAspectRatio="xMidYMid meet" version="1.0">
 <g class="layer">
  <title>Layer 1</title>
  <g fill="#000000" id="svg_1" transform="matrix(0.1 0 0 -0.1 0 0)">
   <path d="m3792,-15c-37,-17 -18,8 -947,-1253c-324,-441 -593,-801 -596,-802c-4,0 -337,442 -740,983c-403,540 -742,994 -753,1009c-72,92 -202,87 -259,-10c-42,-71 -37,-83 203,-553c122,-239 232,-444 244,-456c51,-52 136,-20 136,53c0,33 -25,84 -272,564c-39,74 -63,128 -55,120c8,-8 546,-728 1196,-1600c650,-872 1198,-1600 1216,-1618c21,-19 45,-32 61,-32c33,0 84,50 84,84c0,17 -90,146 -290,414l-289,389l636,1259c593,1172 637,1263 637,1311c1,55 -17,89 -66,126c-33,25 -104,31 -146,12zm-245,-717c-107,-211 -360,-711 -562,-1111c-202,-401 -371,-725 -375,-720c-20,22 -242,326 -247,338c-4,12 1360,1875 1374,1875c2,0 -83,-172 -190,-382z" fill="#be9661" id="svg_2"/>
   <path d="m1099,-1289c-16,-16 -29,-39 -29,-52c0,-18 399,-813 631,-1254l68,-130l-358,-485l-358,-485l-34,3c-117,10 -268,5 -324,-12c-215,-65 -384,-228 -456,-441c-21,-60 -24,-89 -23,-205c0,-121 3,-143 27,-210c38,-104 81,-173 157,-250c202,-206 507,-257 770,-129c69,34 101,58 170,128c136,137 194,277 194,466c-1,118 -20,200 -71,302c-32,64 -34,74 -22,90c8,10 193,224 411,475l397,458l223,-253c230,-260 571,-650 595,-678c11,-13 8,-26 -22,-85c-83,-163 -96,-346 -38,-516c74,-214 239,-369 458,-429c113,-31 288,-24 390,15c39,15 78,30 87,33c9,3 31,-6 50,-20c125,-96 404,-167 651,-167c156,0 267,101 267,242c0,96 -61,188 -148,225c-18,7 -95,20 -171,28c-136,13 -298,41 -319,54c-8,5 -7,21 4,56c8,28 18,91 21,141c20,319 -203,612 -522,685c-81,18 -240,13 -319,-10c-38,-11 -77,-28 -86,-36c-40,-36 -32,-100 16,-131c25,-17 30,-17 93,-1c104,26 165,30 238,17c189,-34 348,-179 395,-359c83,-319 -150,-623 -476,-623c-144,1 -254,47 -353,148c-171,175 -191,431 -48,639c40,58 48,102 23,133c-7,8 -217,248 -465,531c-272,310 -466,523 -485,533c-28,14 -50,15 -158,9c-69,-5 -128,-5 -132,-2c-3,3 -183,351 -398,774c-250,489 -402,775 -418,787c-35,28 -69,25 -103,-9zm821,-1716c6,-4 31,-10 56,-13l45,-7l-380,-438c-209,-241 -387,-448 -396,-460c-23,-33 -18,-60 21,-118c68,-102 91,-163 100,-274c24,-276 -209,-525 -491,-525c-331,0 -566,310 -477,631c58,209 257,359 475,359c29,0 88,-9 131,-19c51,-12 88,-16 102,-11c28,11 48,36 334,425c134,182 281,381 328,444l84,114l29,-51c16,-28 33,-54 39,-57zm2445,-1760c44,-8 138,-21 208,-29c142,-15 167,-27 167,-79c0,-18 -9,-41 -22,-54c-19,-20 -31,-23 -93,-23c-159,0 -356,39 -460,92c-33,16 -62,32 -64,33c-2,2 16,26 39,53l41,50l52,-14c29,-8 88,-21 132,-29z" fill="#be9661" id="svg_3"/>
   <path d="m775,-3993c-108,-36 -183,-99 -231,-195c-26,-52 -29,-67 -29,-157c0,-87 3,-107 26,-155c32,-69 106,-142 178,-178c49,-24 68,-27 151,-27c82,0 103,4 152,27c77,36 142,99 178,172c89,182 16,398 -166,487c-53,26 -80,33 -142,36c-46,2 -93,-2 -117,-10zm173,-172c103,-44 149,-160 103,-260c-35,-77 -95,-115 -178,-115c-160,0 -250,177 -158,309c50,73 149,100 233,66z" fill="#be9661" id="svg_4"/>
   <path d="m3540,-3985c-106,-30 -194,-107 -242,-211c-19,-40 -23,-66 -23,-144c0,-85 3,-101 29,-154c54,-110 155,-186 270,-204c318,-50 539,297 361,565c-84,126 -250,188 -395,148zm175,-174c78,-35 121,-113 113,-202c-11,-114 -128,-199 -236,-170c-94,26 -152,97 -152,189c0,146 144,243 275,183z" fill="#be9661" id="svg_5"/>
  </g>
 </g>
</svg>