<?xml version="1.0"?>
<svg width="512" height="512" xmlns="http://www.w3.org/2000/svg" xmlns:svg="http://www.w3.org/2000/svg" preserveAspectRatio="xMidYMid meet" version="1.0">
 <g class="layer">
  <title>Layer 1</title>
  <g fill="#000000" id="svg_1" transform="matrix(0.1 0 0 -0.1 0 0)">
   <path d="m2043,-387c4,-3 36,-18 71,-33c71,-30 185,-106 261,-175l50,-45l-80,36c-189,85 -341,119 -408,91c-20,-9 -37,-20 -37,-25c0,-5 30,-14 68,-21c80,-14 248,-67 280,-87c29,-19 22,-30 -25,-39c-80,-14 -315,-76 -456,-120c-322,-100 -662,-256 -889,-409c-141,-95 -141,-95 -238,-140c-189,-87 -249,-212 -177,-369c23,-52 24,-57 8,-57c-35,0 -138,-61 -219,-131c-91,-77 -184,-194 -222,-280c-23,-50 -25,-65 -24,-194c2,-157 31,-419 104,-940c27,-192 51,-375 55,-405c15,-130 69,-426 101,-550c50,-195 86,-285 140,-349c33,-39 48,-30 69,43c27,96 37,261 41,716l4,455l36,3c30,3 41,-3 74,-36l39,-39l6,28c7,32 -16,122 -46,181c-11,21 -16,38 -13,38c14,0 80,-54 121,-99c40,-44 42,-45 43,-21c0,41 -28,138 -66,227l-36,83l18,104c11,71 20,103 28,99c6,-4 44,-33 84,-66c40,-33 75,-57 78,-54c3,3 -9,76 -25,163c-17,87 -29,159 -27,161c2,2 44,-4 92,-13c109,-22 355,-24 464,-5c41,8 146,36 234,62c300,93 595,136 861,125c239,-9 336,-31 506,-115c315,-156 501,-382 622,-756c36,-112 80,-291 92,-377c8,-52 14,-57 38,-30c94,104 45,400 -132,792c-29,63 -55,121 -58,129c-10,23 45,5 102,-34c80,-54 146,-144 207,-279l26,-60l12,45c41,147 -80,362 -308,546c-118,96 -121,95 118,17c186,-62 366,-144 424,-196l39,-34l2,-699c2,-793 17,-1077 60,-1183c17,-40 36,-41 68,-2c49,58 89,200 142,503c52,295 78,378 211,672c98,217 191,387 296,541c52,77 101,157 108,179c8,25 11,64 7,114c-13,167 -121,389 -309,640l-79,104l42,-7c67,-11 192,-82 284,-162c46,-41 88,-82 94,-91c17,-29 12,-2 -9,55c-98,256 -329,510 -604,661c-97,54 -253,115 -359,142c-103,25 -110,34 -128,151c-32,216 -142,283 -659,402c-460,106 -643,167 -994,330c-133,62 -230,96 -273,96c-20,0 -33,-3 -30,-7z" fill="#be9661" id="svg_2"/>
  </g>
 </g>
</svg>